# File created by Blade
# Date/Time:  Wed Apr 08 14:47:20 2015
# Frame Rate: 120.000 fps
#------------------------------------------------------
:FULLY-SPECIFIED
:DEGREES
1547
root 0.203476 35.142631 -5.834773 -2.767328 17.047281 -44.133010
Spine -10.936907 13.592692 15.179743
Head -22.877786 -19.916460 57.308732
LeftShoulder -16.084356 31.026380 31.579207
LeftArm 114.453823 -73.968850 -124.482135
LeftForeArm -24.735260 -0.000000 69.282354
LeftHand 17.239915 -0.000000 27.662951
LeftHandThumb1 -26.253704 0.000000 33.147579
RightShoulder 2.310994 12.018426 -21.462277
RightArm 26.214317 -22.778741 78.221168
RightForeArm 5.815748 0.000000 111.151517
RightHand 12.257096 -0.000000 -8.907462
RightHandThumb1 -24.326973 -0.000000 -32.862282
LeftUpLeg -23.838134 -6.383582 41.330416
LeftLeg 21.197265 -0.000000 -0.000000
LeftFoot 6.969221 17.099847 -0.236953
LeftToeBase -18.955501 -0.000000 0.000000
RightUpLeg -24.730271 -19.004076 -36.089073
RightLeg 121.313079 -0.000000 -0.000000
RightFoot 45.851680 0.518592 -3.231913
RightToeBase 30.308944 -0.000000 -0.000000
1548
root 0.108034 35.325104 -5.703827 -5.066806 17.695206 -46.200599
Spine -9.996347 12.219070 16.953717
Head -21.198271 -20.047407 59.011313
LeftShoulder -14.011836 29.523283 34.064688
LeftArm 115.991233 -73.936032 -122.282566
LeftForeArm -24.173131 0.000000 68.619031
LeftHand 17.700867 0.000000 26.769623
LeftHandThumb1 -26.253704 0.000000 33.147579
RightShoulder 2.433038 12.553105 -20.996493
RightArm 27.077010 -22.429622 78.084781
RightForeArm 6.360331 0.000000 110.515746
RightHand 11.784598 -0.000000 -8.398680
RightHandThumb1 -24.326973 -0.000000 -32.862282
LeftUpLeg -22.473620 -5.836176 42.378455
LeftLeg 20.105931 -0.000000 -0.000000
LeftFoot 8.162891 18.098679 0.404617
LeftToeBase -18.777944 -0.000000 0.000000
RightUpLeg -25.746941 -20.524307 -37.689093
RightLeg 118.325437 -0.000000 -0.000000
RightFoot 45.539094 -0.183617 -3.826129
RightToeBase 28.501551 -0.000000 -0.000000
1549
root 0.013531 35.511146 -5.562030 -7.591559 18.060064 -48.522031
Spine -8.896580 10.820489 19.027328
Head -19.397066 -20.232882 60.521330
LeftShoulder -11.971884 27.960987 36.514434
LeftArm 116.590480 -73.721592 -119.285189
LeftForeArm -23.468855 -0.000000 67.654367
LeftHand 18.139940 -0.000000 26.076966
LeftHandThumb1 -26.253704 0.000000 33.147579
RightShoulder 2.565587 13.085324 -20.590516
RightArm 28.037422 -22.233371 77.874232
RightForeArm 6.604317 0.000000 109.879697
RightHand 11.226781 0.000000 -8.281321
RightHandThumb1 -24.326973 -0.000000 -32.862282
LeftUpLeg -20.876078 -5.377936 43.736754
LeftLeg 18.935494 -0.000000 -0.000000
LeftFoot 9.232504 19.198930 0.840182
LeftToeBase -18.568778 -0.000000 0.000000
RightUpLeg -26.755431 -22.105390 -38.701112
RightLeg 114.768049 -0.000000 -0.000000
RightFoot 45.286574 -0.941630 -3.938036
RightToeBase 27.638681 -0.000000 -0.000000
1550
root -0.087976 35.674935 -5.453965 -9.667758 18.054258 -50.386795
Spine -8.014093 9.751762 20.545210
Head -17.486376 -20.367574 61.942021
LeftShoulder -9.841175 26.399442 39.078268
LeftArm 116.912061 -73.400337 -116.228887
LeftForeArm -23.422541 -0.000000 66.448687
LeftHand 18.838214 -0.000000 25.230501
LeftHandThumb1 -26.253704 0.000000 33.147579
RightShoulder 2.405124 14.481968 -20.165877
RightArm 28.459409 -22.401792 78.019284
RightForeArm 6.691729 -0.000000 108.820960
RightHand 11.056787 -0.000000 -7.582641
RightHandThumb1 -24.326973 -0.000000 -32.862282
LeftUpLeg -19.373067 -4.729721 44.792616
LeftLeg 17.835806 -0.000000 -0.000000
LeftFoot 10.049590 20.482471 1.162877
LeftToeBase -17.832940 -0.000000 0.000000
RightUpLeg -28.453229 -23.872811 -39.677286
RightLeg 110.883783 -0.000000 -0.000000
RightFoot 45.263002 -1.377472 -3.861942
RightToeBase 27.874802 -0.000000 -0.000000
1551
root -0.185506 35.820910 -5.347940 -11.620983 17.787514 -51.987700
Spine -7.076537 8.743041 21.867657
Head -15.549051 -20.392736 63.146629
LeftShoulder -7.890020 24.959145 41.497801
LeftArm 117.055445 -72.729044 -113.151934
LeftForeArm -23.283328 0.000000 65.060546
LeftHand 19.277161 0.000000 23.874903
LeftHandThumb1 -26.253704 0.000000 33.147579
RightShoulder 2.388310 15.347733 -19.835265
RightArm 29.432161 -22.458024 78.066199
RightForeArm 6.247945 0.000000 107.892082
RightHand 10.531120 0.000000 -7.098327
RightHandThumb1 -24.326973 -0.000000 -32.862282
LeftUpLeg -17.762142 -3.929585 45.655302
LeftLeg 16.817542 -0.000000 -0.000000
LeftFoot 10.696234 21.753371 1.226023
LeftToeBase -17.300767 -0.000000 0.000000
RightUpLeg -30.346659 -25.731422 -40.438499
RightLeg 106.457386 -0.000000 -0.000000
RightFoot 45.578504 -1.989829 -3.632248
RightToeBase 27.720348 -0.000000 -0.000000
1552
root -0.273759 35.961704 -5.234172 -13.672474 17.307069 -53.645916
Spine -5.995986 7.747016 23.370373
Head -13.593077 -20.462948 64.123124
LeftShoulder -6.146033 23.645919 43.683877
LeftArm 117.167273 -71.525619 -110.163665
LeftForeArm -22.932360 -0.000000 63.531250
LeftHand 19.385351 0.000000 23.666492
LeftHandThumb1 -26.253704 0.000000 33.147579
RightShoulder 2.334863 16.134342 -19.608403
RightArm 30.441718 -22.638606 78.044166
RightForeArm 5.510962 -0.000000 106.989523
RightHand 10.270102 0.000000 -6.783080
RightHandThumb1 -24.326973 -0.000000 -32.862282
LeftUpLeg -16.024185 -3.166744 46.694255
LeftLeg 15.895751 -0.000000 -0.000000
LeftFoot 11.093509 23.020741 0.793293
LeftToeBase -16.769490 -0.000000 0.000000
RightUpLeg -32.182264 -27.561422 -40.650855
RightLeg 101.402403 -0.000000 -0.000000
RightFoot 46.013748 -2.913780 -3.185715
RightToeBase 27.810115 -0.000000 -0.000000
1553
root -0.361656 36.082436 -5.127973 -15.591431 16.625469 -55.042132
Spine -4.846572 6.829027 24.682009
Head -11.681054 -20.526001 64.917935
LeftShoulder -4.737999 22.456703 45.712158
LeftArm 117.366639 -69.667346 -107.459664
LeftForeArm -22.765158 0.000000 61.891993
LeftHand 19.350218 -0.000000 24.217871
LeftHandThumb1 -26.253704 0.000000 33.147579
RightShoulder 2.222264 16.440867 -19.467923
RightArm 32.082109 -22.812053 77.764135
RightForeArm 4.666806 0.000000 106.024692
RightHand 10.197849 0.000000 -6.251544
RightHandThumb1 -24.326973 -0.000000 -32.862282
LeftUpLeg -14.285797 -2.303641 47.612237
LeftLeg 15.165307 -0.000000 -0.000000
LeftFoot 11.214586 24.304238 0.180612
LeftToeBase -15.957374 -0.000000 0.000000
RightUpLeg -34.178002 -29.439294 -40.594825
RightLeg 95.929703 -0.000000 -0.000000
RightFoot 46.390685 -3.454642 -2.989210
RightToeBase 26.869454 -0.000000 -0.000000
1554
root -0.450685 36.182143 -5.027015 -17.451921 15.836760 -56.326051
Spine -3.625762 5.815964 25.986181
Head -9.712169 -20.567743 65.403250
LeftShoulder -3.461781 21.139619 47.569227
LeftArm 117.224830 -67.658219 -104.790888
LeftForeArm -22.708100 -0.000000 60.265726
LeftHand 19.557142 -0.000000 23.506547
LeftHandThumb1 -26.253704 0.000000 33.147579
RightShoulder 1.992333 17.246417 -19.321833
RightArm 33.519357 -23.286574 77.513222
RightForeArm 3.760041 -0.000000 104.887177
RightHand 10.102840 -0.000000 -5.868539
RightHandThumb1 -24.326973 -0.000000 -32.862282
LeftUpLeg -12.662288 -1.437921 48.548233
LeftLeg 14.689291 -0.000000 -0.000000
LeftFoot 10.960179 25.388132 -1.090744
LeftToeBase -15.240244 -0.000000 0.000000
RightUpLeg -36.202166 -31.271414 -40.140005
RightLeg 89.911378 -0.000000 -0.000000
RightFoot 46.504930 -4.398709 -2.516766
RightToeBase 27.461001 -0.000000 -0.000000
